<svg id="Layer_1" data-name="Layer 1" xmlns="http://www.w3.org/2000/svg" viewBox="0 0 224.84 141.15"><defs><style>.cls-1{fill:#1d1d1b;}</style></defs><title>logo</title><path class="cls-1" d="M55.29,25.52,53.88,29Q58.35,32.69,64,38.32l3,3c2.37,2.34,3.89,3.8,4.59,4.37a3,3,0,0,0,1.77.86c.89,0,2.18-.64,3.87-1.93l.88,1Q74,49,70.72,51.4l-1.23-1.27Q57.85,38.25,51.84,32.9A35.34,35.34,0,0,1,41.43,44.54q-9.59,6.83-18.7,6.82-8.06,0-13.09-4.8A16.36,16.36,0,0,1,4.59,34.13,24,24,0,0,1,8.56,21,35.44,35.44,0,0,1,19.85,10.19,56.8,56.8,0,0,1,36.39,3.53,84.38,84.38,0,0,1,56.62,1.12q10.44,0,16,2.59t5.59,7.4q0,6.39-8.47,9.67c-2.74,1.07-4.46,2.66-5.17,4.74-1.61-.09-3.35-.14-5.2-.14C58,25.38,56.57,25.43,55.29,25.52ZM49.91,12.09A95.72,95.72,0,0,0,60.28,9.42l-.18.63c-1.05,4.39-2.14,8.19-3.27,11.43,1.34.07,2.29.1,2.85.1q6.36,0,10-2.63a8.5,8.5,0,0,0,3.64-7.28Q73.32,3,53.63,3q-22,0-34.1,9.84Q9.06,21.38,9.06,32.66a15.22,15.22,0,0,0,4.67,11.55q4.68,4.44,12.17,4.44A23.43,23.43,0,0,0,34.14,47a23.9,23.9,0,0,0,7.33-4.29q4.32-3.77,8.09-12-6-5.34-11.18-5.34A10.35,10.35,0,0,0,27.65,36.21,14.79,14.79,0,0,0,28,39.06a4.59,4.59,0,0,1-2.7-4.19q0-3.93,5.61-8.38T41.43,22a11.88,11.88,0,0,1,7.18,2.6l2.21,1.69.53.35a53.4,53.4,0,0,0,2.32-6.5A22.2,22.2,0,0,0,54.76,15c0-1.33-.79-2-2.36-2a12.2,12.2,0,0,0-2.18.28Z" transform="translate(-1.8 -1.12)"/><path class="cls-1" d="M105.49,24.5c-1.24-.12-2.27-.17-3.09-.17q-9.25,0-14.17,7.1A28.66,28.66,0,0,0,85,37.88,18.42,18.42,0,0,0,83.62,44a4.09,4.09,0,0,0,1,2.83,3.29,3.29,0,0,0,2.55,1.11q3.66,0,8.09-5.88t4.43-10.75a2.94,2.94,0,0,0-.58-1.85,1.72,1.72,0,0,0-1.39-.75q-2.82,0-5.38,5.62a5,5,0,0,1-.17-1.23c0-1.45.9-3,2.7-4.57A8,8,0,0,1,100,26.12a3.49,3.49,0,0,1,2.75,1.32,4.78,4.78,0,0,1,1.12,3.21q0,6.38-8.12,13.5-7,6.2-11.57,6.19a4.32,4.32,0,0,1-3.32-1.44,5.16,5.16,0,0,1-1.32-3.62A18.77,18.77,0,0,1,82.9,35.21a32,32,0,0,1,8.84-9.06,30.74,30.74,0,0,1,6.6-3.41,17.78,17.78,0,0,1,6.06-1.33c1,0,1.55.45,1.55,1.37A5.77,5.77,0,0,1,105.49,24.5Z" transform="translate(-1.8 -1.12)"/><path class="cls-1" d="M131.93,22.11h12q-3.71,11-15,20.22l-4.11,3.37q-1.17.94-2.82,2.43l-2.35,2.11-.71.56.39-1.69q1-4.92,2.15-11.14,1.5-8.68,2-11.11a21.56,21.56,0,0,0-2.46,4q-7.53,14.7-15.36,19.79a96.64,96.64,0,0,0,4.13-12.3,41.1,41.1,0,0,0,1.56-9.74c0-2.25-.52-3.38-1.55-3.38a4.41,4.41,0,0,0-2.21,1.16l-.56-1,.73-.49q3-1.93,4.89-3.48,3,1.36,3,5.31,0,5.16-3.44,15.15l-.6,1.76a39.47,39.47,0,0,0,2.5-3.8l3.09-5.66q5.28-9.6,11.25-13.11l-5.13,24c.61-.52,2.38-1.92,5.31-4.22q9.76-7.74,11.39-15h-6.23a2.9,2.9,0,0,0-2.84,1.69l-.74,1.55-.28.56h-1.27Z" transform="translate(-1.8 -1.12)"/><path class="cls-1" d="M149.65,22a9.9,9.9,0,0,1,.56,3.55,53.86,53.86,0,0,1-2,12.31,75.13,75.13,0,0,1,10.35-11.45q4.8-4.12,7.68-4.13c1.36,0,2,1.14,2,3.41q0,8.65-10.12,19.44a38.89,38.89,0,0,1-8.65,7.25,26.84,26.84,0,0,1-9.32,3.12,16.28,16.28,0,0,0-6.54,2.11,4.52,4.52,0,0,0-2,3.91,3.5,3.5,0,0,0,1.92,3.07,9.31,9.31,0,0,0,5,1.18,13.21,13.21,0,0,0,6.89-1.86q-.81,4.4-6.85,4.39a9.53,9.53,0,0,1-5.91-1.72,5.37,5.37,0,0,1-2.29-4.47c0-2.29,1.14-4.71,3.41-7.24a9,9,0,0,1,3.54-2.46,35.64,35.64,0,0,1,7.05-1.19,17.25,17.25,0,0,0,7.49-2.29,26.6,26.6,0,0,0,7.73-7.56,28.36,28.36,0,0,0,3.13-6.06A16.7,16.7,0,0,0,164,29.63c0-1.92-.64-2.88-1.93-2.88q-3.27,0-9.07,7a72.56,72.56,0,0,0-10,16l-.32.67h-1.23l.35-1.34q4-14.1,4-20.35,0-2.22-1.44-2.22a4.87,4.87,0,0,0-1.62.39l-.49.17-.32-1.05.53-.28,3.3-1.62,3.38-1.86A6,6,0,0,1,149.65,22Z" transform="translate(-1.8 -1.12)"/><path class="cls-1" d="M202.38,2.25c-.09,1.54-1.2,5-3.3,10.3l-2.61,6.54-1,2.53a3.62,3.62,0,0,1,2.29,3.44,13.35,13.35,0,0,0-3.38-.59l-.24.63-4.54,11.53q-3.17,8.06-3.16,9.18a.86.86,0,0,0,1,1,7.74,7.74,0,0,0,3.23-1.37l.35-.21.67.84A36,36,0,0,1,181,50.62l.29-1.16A92.69,92.69,0,0,1,185,38.92q.81-1.94,1.47-3.63L190.39,25l.35-.77a19.67,19.67,0,0,0-8.19,2,27.34,27.34,0,0,0-7.7,5.25q-6.18,6.15-6.18,12.66c0,2,.72,3,2.17,3s3.22-1,5.37-3a30.44,30.44,0,0,0,5.67-7.17,41.08,41.08,0,0,0,3.8-9,6.51,6.51,0,0,1,.6,2.77q0,2.93-2.52,6.79A35.49,35.49,0,0,1,177,45.14q-6.28,5.34-9.81,5.34-2.67,0-2.67-3.34a15.55,15.55,0,0,1,1.88-6.71,32,32,0,0,1,5-7.24q8.76-9.6,20.36-11.57l.95-2.43,2.53-6.64a14.88,14.88,0,0,0,1.16-3.94c.05-1-.46-1.51-1.51-1.51a5.39,5.39,0,0,0-2,.46l-.42-1.06.56-.21A85,85,0,0,0,202.38,2.25Z" transform="translate(-1.8 -1.12)"/><path class="cls-1" d="M217.43,45.07l.63.91A27.77,27.77,0,0,1,208,50.34q.18-3.56,4.18-12.23A55.2,55.2,0,0,1,202.82,47q-4.8,3.51-7.61,3.51c-1.64,0-2.46-1-2.46-3.13q0-5.31,4.74-11.48a38.27,38.27,0,0,1,11.92-10.14,32.72,32.72,0,0,1,16.1-4.53c.75,0,1.13.28,1.13.84a7.35,7.35,0,0,1-1.06,2.67,26.77,26.77,0,0,0-4.64-.42q-10.73,0-18.45,8.33-5.7,6.12-5.7,12.13c0,1.88.69,2.81,2.07,2.81,1.18,0,2.86-1,5.07-3a36.07,36.07,0,0,0,5.9-7.05,34.84,34.84,0,0,0,4.89-11.53,3.62,3.62,0,0,1,1.51,3.38q0,3.41-3.44,7.84a18.31,18.31,0,0,0,4.18-1l-.28.6q-3.34,7.48-3.34,8.76c0,.68.32,1,1,.94A9.22,9.22,0,0,0,217.43,45.07Z" transform="translate(-1.8 -1.12)"/><path class="cls-1" d="M52.49,99.52,51.09,103q4.45,3.69,10.08,9.32l3,3q3.56,3.51,4.59,4.37a3,3,0,0,0,1.78.87c.89,0,2.18-.65,3.86-1.94l.88,1q-4.08,3.41-7.35,5.77l-1.23-1.27Q55.07,112.25,49.05,106.9a35.45,35.45,0,0,1-10.41,11.64q-9.6,6.83-18.7,6.82-8.06,0-13.1-4.8a16.39,16.39,0,0,1-5-12.43A24,24,0,0,1,5.77,95,35.51,35.51,0,0,1,17.05,84.19a56.91,56.91,0,0,1,16.54-6.66,84.46,84.46,0,0,1,20.24-2.41q10.44,0,16,2.59t5.59,7.4q0,6.39-8.47,9.67c-2.75,1.07-4.47,2.66-5.17,4.74-1.62-.09-3.35-.14-5.21-.14C55.15,99.38,53.78,99.43,52.49,99.52ZM47.11,86.09a95.11,95.11,0,0,0,10.37-2.67l-.17.63c-1.06,4.39-2.15,8.19-3.27,11.43,1.33.07,2.28.1,2.85.1q6.36,0,10-2.63a8.52,8.52,0,0,0,3.64-7.28Q70.53,77,50.84,77q-22,0-34.1,9.84Q6.26,95.38,6.26,106.66a15.23,15.23,0,0,0,4.68,11.55q4.67,4.44,12.16,4.44A23.12,23.12,0,0,0,31.34,121a23.78,23.78,0,0,0,7.33-4.29q4.34-3.77,8.09-12-5.94-5.35-11.18-5.35a10.34,10.34,0,0,0-10.72,10.76,14.79,14.79,0,0,0,.35,2.85,4.59,4.59,0,0,1-2.71-4.19q0-3.93,5.61-8.38T38.64,96a11.87,11.87,0,0,1,7.17,2.6L48,100.33l.52.35a51.76,51.76,0,0,0,2.32-6.5A22.25,22.25,0,0,0,52,89.05c0-1.34-.78-2-2.35-2a12.2,12.2,0,0,0-2.18.28Z" transform="translate(-1.8 -1.12)"/><path class="cls-1" d="M100.48,119.07l.63.91A27.77,27.77,0,0,1,91,124.34q.18-3.56,4.19-12.23A55.62,55.62,0,0,1,85.87,121c-3.2,2.34-5.73,3.51-7.61,3.51-1.64,0-2.46-1-2.46-3.13q0-5.31,4.75-11.47A38,38,0,0,1,92.46,99.73a32.73,32.73,0,0,1,16.11-4.53c.75,0,1.12.28,1.12.84a7.46,7.46,0,0,1-1,2.67,26.94,26.94,0,0,0-4.64-.42q-10.73,0-18.46,8.33-5.7,6.12-5.7,12.13c0,1.88.69,2.81,2.08,2.81q1.76,0,5.06-3a36.46,36.46,0,0,0,5.91-7,34.6,34.6,0,0,0,4.88-11.53,3.62,3.62,0,0,1,1.51,3.38c0,2.27-1.14,4.89-3.44,7.84a18.31,18.31,0,0,0,4.18-1l-.28.6q-3.34,7.49-3.34,8.76c0,.68.32,1,.95.94A9.13,9.13,0,0,0,100.48,119.07Z" transform="translate(-1.8 -1.12)"/><path class="cls-1" d="M125,95.3l-.39.67-1.72,2.88c-.61,1-1.25,2.07-1.93,3.1l-.39.56-.88-.6.25-.56a5.94,5.94,0,0,0,.73-2.14c0-.9-.78-1.34-2.35-1.34a5.15,5.15,0,0,0-3.76,1.6,5.06,5.06,0,0,0-1.62,3.71,6.62,6.62,0,0,0,.7,2.67l1.69,3.62a9.51,9.51,0,0,1,.84,4q0,4.24-4.67,8-4,3.27-7.17,3.27a4.7,4.7,0,0,1-3-.9,2.79,2.79,0,0,1-1.16-2.3,6.53,6.53,0,0,1,.85-3.2c1.45,2.48,3.25,3.73,5.41,3.73a6.65,6.65,0,0,0,4.54-1.76,5.33,5.33,0,0,0,2-4.08,7,7,0,0,0-.71-2.81l-2.07-4.54a7.1,7.1,0,0,1-.6-3q0-2.91,3.23-6.54a13.7,13.7,0,0,1,4.35-3.36,13.4,13.4,0,0,1,5.43-1A16.49,16.49,0,0,1,125,95.3Z" transform="translate(-1.8 -1.12)"/><path class="cls-1" d="M143.86,119.46l.64.91a66.72,66.72,0,0,1-8.93,3.83l-.88.32q.38-5.49,7.59-20.89a9.93,9.93,0,0,0,1.13-3.23c0-.73-.27-1.09-.81-1.09s-1.69.61-3.24,1.83a35.91,35.91,0,0,0-4.5,4.29,74.32,74.32,0,0,0-6.59,8.59,57.73,57.73,0,0,0-4.87,8.6,13.61,13.61,0,0,0-4.57,1.41l.39-.92q2.39-5.6,4.43-10.79l4.11-10.48,4.18-10.44q3-7.7,3-9.49c0-.82-.38-1.23-1.13-1.23a7.91,7.91,0,0,0-2.07.53l-.46.17-.35-1a53.73,53.73,0,0,0,8.4-3.69l.67-.39c0,.45,0,.78,0,1A26.18,26.18,0,0,1,138.31,85q-1.77,5.08-7,17.74l-3.8,9.17-.42,1,.6-.74q13.46-16.67,19.23-16.67a1.49,1.49,0,0,1,1.68,1.69,11.48,11.48,0,0,1-1.26,4L145.13,106q-5.52,12.15-5.52,14.09,0,.78.81.78a8,8,0,0,0,3.13-1.2Z" transform="translate(-1.8 -1.12)"/><path class="cls-1" d="M166.82,108.87a4,4,0,0,1,.49,1.76q0,3.38-4.67,7.77-6.82,6.43-11.61,6.43c-2.74,0-4.11-1.55-4.11-4.67a22.85,22.85,0,0,1,3.22-11.08,29.86,29.86,0,0,1,8.24-9.56Q164.5,95,169.28,95c1.85,0,2.78.68,2.78,2a6,6,0,0,1-1.34,3.22,15.52,15.52,0,0,1-3.34,3.39,21.79,21.79,0,0,1-4.73,2.53,13,13,0,0,1-4.41,1.16,2.32,2.32,0,0,1-2.28-1.83,17.58,17.58,0,0,0,2.35.21,11.27,11.27,0,0,0,6.49-2c2-1.35,3-2.8,3-4.37,0-1.13-.73-1.69-2.18-1.69q-3.9,0-8,4.78a29.21,29.21,0,0,0-4.75,7.87,21.39,21.39,0,0,0-1.86,8q0,3.61,3,3.62,3.31,0,6.88-3.64A29,29,0,0,0,166.82,108.87Z" transform="translate(-1.8 -1.12)"/><path class="cls-1" d="M204.68,76.25q-.13,2.32-3.3,10.3l-2.6,6.54-1,2.53A3.63,3.63,0,0,1,200,99.06a13.27,13.27,0,0,0-3.37-.59l-.25.63-4.53,11.53q-3.16,8.06-3.17,9.18a.86.86,0,0,0,.95,1,7.71,7.71,0,0,0,3.24-1.37,3.12,3.12,0,0,1,.35-.21l.66.84a36.08,36.08,0,0,1-10.61,4.57l.28-1.16a92.69,92.69,0,0,1,3.69-10.54c.54-1.29,1-2.5,1.48-3.62L192.69,99l.36-.77a19.68,19.68,0,0,0-8.2,2,27.15,27.15,0,0,0-7.69,5.25Q171,111.68,171,118.19c0,2,.72,3,2.18,3s3.21-1,5.36-3a30.27,30.27,0,0,0,5.68-7.17,41.56,41.56,0,0,0,3.79-9,6.55,6.55,0,0,1,.6,2.78q0,2.91-2.51,6.78a35.77,35.77,0,0,1-6.73,7.49q-6.3,5.34-9.81,5.34c-1.78,0-2.68-1.11-2.68-3.34a15.44,15.44,0,0,1,1.89-6.71,31.37,31.37,0,0,1,5-7.24q8.75-9.6,20.35-11.57l1-2.43,2.53-6.64a14.88,14.88,0,0,0,1.16-3.94c0-1-.46-1.51-1.51-1.51a5.39,5.39,0,0,0-2,.46l-.42-1.06.56-.21A85,85,0,0,0,204.68,76.25Z" transform="translate(-1.8 -1.12)"/><path class="cls-1" d="M207.53,96a9.72,9.72,0,0,1,.56,3.55,53.86,53.86,0,0,1-2,12.31,75.65,75.65,0,0,1,10.36-11.45q4.8-4.12,7.68-4.13c1.36,0,2,1.14,2,3.41q0,8.66-10.13,19.44a38.89,38.89,0,0,1-8.65,7.25,26.58,26.58,0,0,1-9.31,3.12,16.22,16.22,0,0,0-6.54,2.11,4.5,4.5,0,0,0-2,3.91,3.49,3.49,0,0,0,1.91,3.07,9.37,9.37,0,0,0,5,1.18,13.26,13.26,0,0,0,6.89-1.86q-.81,4.4-6.86,4.39a9.57,9.57,0,0,1-5.91-1.72,5.36,5.36,0,0,1-2.28-4.47c0-2.29,1.14-4.71,3.41-7.24a9,9,0,0,1,3.53-2.46,35.93,35.93,0,0,1,7.05-1.19,17.17,17.17,0,0,0,7.49-2.29,26.6,26.6,0,0,0,7.73-7.56,27.48,27.48,0,0,0,3.13-6.06,16.51,16.51,0,0,0,1.27-5.65c0-1.92-.65-2.88-1.93-2.88q-3.27,0-9.07,7a73,73,0,0,0-10,16l-.32.67H199.3l.36-1.34q4-14.1,4-20.35,0-2.22-1.44-2.22a4.87,4.87,0,0,0-1.62.39l-.49.17-.31-1a5.25,5.25,0,0,0,.52-.28l3.31-1.62L207,96.29Z" transform="translate(-1.8 -1.12)"/></svg>
