<svg id="Layer_1" data-name="Layer 1" xmlns="http://www.w3.org/2000/svg" viewBox="0 0 412.84 62.44"><defs><style>.cls-1{fill:#413e66;}</style></defs><title>name</title><path class="cls-1" d="M29.25,47.19,16,40.72q-5.07,6.93-5.67,9.14a4.72,4.72,0,0,1-1.88,2.65,4.52,4.52,0,0,1-2.09,1.08c-1.19,0-1.79-.46-1.79-1.37q0-.78,2.13-4.45a91.61,91.61,0,0,1,5.85-8.67c-1.38-.56-2.24-.94-2.57-1.12s-.45-.55-.38-1.08a7.12,7.12,0,0,1,1.23-2.47,16.12,16.12,0,0,1,1.47-2,3.79,3.79,0,0,1,1.16-.81,5.29,5.29,0,0,1,1.41-.4L19,30.7q2.78-3.76,6-8.12t5.08-6.79q-5.52.75-7.7,1.23l-3.89.76a15.19,15.19,0,0,0-2.19.53c-.43.15-.64.37-.64.65s.26.43.78.52a10.43,10.43,0,0,0,2,.15,14.68,14.68,0,0,1,1.83.08c.43.06.65.2.65.41s-.29.37-.86.4-2.19.11-4.84.23c-1.5.05-2.76.09-3.78.14S9.71,21,9.32,21a1.64,1.64,0,0,1-1.27-.49,1.86,1.86,0,0,1-.46-1.3A7.52,7.52,0,0,1,8.26,17a15.93,15.93,0,0,1,1.9-3.27A9.4,9.4,0,0,1,13,11.12a24.63,24.63,0,0,1,5.57-2.2A61.22,61.22,0,0,1,27,7.13a61.88,61.88,0,0,1,9.15-.69,45,45,0,0,1,5.37.32c1.74.21,3.32.47,4.74.77a25.16,25.16,0,0,1,3.36.92,10,10,0,0,1,4.9,3.2,7.37,7.37,0,0,1,1.71,4.71,14.32,14.32,0,0,1-.86,4.87,13.94,13.94,0,0,1-2.64,4.39,14.18,14.18,0,0,1-4.27,3.29,32.37,32.37,0,0,1-6.19,2.14A89.32,89.32,0,0,1,32.2,33q-5.87.85-13.11,1.24Q24.51,36.11,29.2,38c3.13,1.28,5.76,2.41,7.91,3.41s3.82,1.81,5,2.44a26.09,26.09,0,0,1,3.34,1.94,2.74,2.74,0,0,1,1,1.54,14.19,14.19,0,0,1,.25,3.13,16,16,0,0,1-.3,3.64c-.2.79-.63,1.18-1.29,1.18a6.13,6.13,0,0,1-1.67-.69c-.9-.45-2.15-1.12-3.74-2s-3-1.67-4.34-2.36S32.06,48.55,29.25,47.19Zm3.09-31.75c0,.17,0,.32.06.46s0,.34,0,.6a5.33,5.33,0,0,1-.61,2.26,17.85,17.85,0,0,1-1.58,2.64q-1,1.35-2.89,3.87L23.8,29.89q7.38-1.41,12.6-2.71A70.74,70.74,0,0,0,45,24.56a17.88,17.88,0,0,0,5.08-2.77,4.08,4.08,0,0,0,1.7-3q0-1.77-3.56-2.76a32.7,32.7,0,0,0-8.74-1c-.7,0-1.45,0-2.23.06s-1.73.1-2.82.21Z" transform="translate(-4.57 -3.91)"/><path class="cls-1" d="M72.35,39.28v2.35a18.61,18.61,0,0,1-3.73,2.82,8.39,8.39,0,0,1-4,.56q-4.57,5.41-8,5.41a5.59,5.59,0,0,1-3.59-1.3,9.06,9.06,0,0,1-2.58-3.55,12.67,12.67,0,0,1-1-5,10.58,10.58,0,0,1,1.5-5,23.16,23.16,0,0,1,8.94-8.95,10.76,10.76,0,0,1,5-1.45,5.54,5.54,0,0,1,2.6.5,1.56,1.56,0,0,1,1,1.43,2.62,2.62,0,0,1-.81,1.62,2.9,2.9,0,0,1,1.83.93A4.1,4.1,0,0,1,69.92,32a14.89,14.89,0,0,1-.79,4.25A20.52,20.52,0,0,1,67,41.07l.63.63h.53a2.55,2.55,0,0,0,1.18-.3,7.35,7.35,0,0,0,1-.63ZM65.11,30q-2.93,1.75-5,3.18A23.35,23.35,0,0,0,56.6,36.1,7.78,7.78,0,0,0,54.67,39c-.59,2.63-.88,4-.88,4.26,0,1.54,1.08,2.32,3.23,2.32q1.51,0,5.06-2.61a9.45,9.45,0,0,1-.59-3.16,12.19,12.19,0,0,1,.91-4.52A37.13,37.13,0,0,1,65.11,30Z" transform="translate(-4.57 -3.91)"/><path class="cls-1" d="M90.67,43.5c0,1,.4,1.58,1.19,1.58q1.55,0,5.42-5.24a10.36,10.36,0,0,1-.14-1.3,10.07,10.07,0,0,1,1.51-4.64,21.86,21.86,0,0,1,3.48-4.78c1.31-1.36,2.31-2,3-2s1.23,1,1.23,3a11.77,11.77,0,0,1-1,4.78,21.68,21.68,0,0,1-3,4.82c.21.21.45.43.71.65a4.1,4.1,0,0,0,.82.56,2.06,2.06,0,0,0,.93.23c.78,0,1.76-.62,3-1.86V41.7q-2.77,2.89-4.82,2.89a4.79,4.79,0,0,1-1.88-.3,9.9,9.9,0,0,1-1.74-1.07Q92.82,51,89.44,51a2.48,2.48,0,0,1-2.06-1,4.3,4.3,0,0,1-.76-2.69q0-.84.71-6.33c-.92,1.06-2,2.3-3.2,3.73s-2.21,2.52-3,3.28a12.41,12.41,0,0,1-2.09,1.78,3.52,3.52,0,0,1-2,.63,3.76,3.76,0,0,1-2.27-1.19,9.9,9.9,0,0,1-2.23-3.18,10.12,10.12,0,0,1-.91-4.28A10.23,10.23,0,0,1,72.35,38a26.16,26.16,0,0,1,2.88-4.75c1.36-1.87,2.57-3.41,3.62-4.6a20.64,20.64,0,0,1,2.87-2.78,3.84,3.84,0,0,1,2.09-1,4.89,4.89,0,0,1,1.28.23,5.33,5.33,0,0,1,1.41.62c.41.26.62.52.62.81a7.27,7.27,0,0,1-1.18,3.37,27.26,27.26,0,0,1-3.5,4.57,71.25,71.25,0,0,1-5.31,5.17,13.13,13.13,0,0,0-.81,3.94,1.61,1.61,0,0,0,.3.93.87.87,0,0,0,.72.44q1.44,0,5.54-4.5T93.69,26.8c.16-.24.52-.35,1.06-.35a3.28,3.28,0,0,1,1.59.38,1.19,1.19,0,0,1,.73,1.06A26.54,26.54,0,0,1,95.22,32q-1.84,3.72-3.2,6.84A13.25,13.25,0,0,0,90.67,43.5Z" transform="translate(-4.57 -3.91)"/><path class="cls-1" d="M123.78,40.72,117.53,46q-4.47,3.9-6,3.9c-.91,0-1.88-1-2.88-3.15a13,13,0,0,1-1.51-5.5,8.35,8.35,0,0,1,.61-3.39,23.75,23.75,0,0,1,2.13-3.6A48.67,48.67,0,0,1,114,29.22,29.35,29.35,0,0,1,117.49,26a4.7,4.7,0,0,1,2.11-1.15,2.55,2.55,0,0,1,1.85,1,3,3,0,0,1,.89,2,4.83,4.83,0,0,1-1,2.14,32.21,32.21,0,0,1-3.06,3.75,70,70,0,0,1-5.82,5.43l-.67,1.93a2.24,2.24,0,0,0-.28,1,.84.84,0,0,0,1,.94c.65,0,2.2-.83,4.62-2.49A57.89,57.89,0,0,0,125,33.86c1.11-1.1,2-2.07,2.75-2.91s1.38-1.64,2-2.38a18.84,18.84,0,0,1,1.45-1.67,1.84,1.84,0,0,1,1-.59,1.3,1.3,0,0,1,1.37.73,5.07,5.07,0,0,1,.49,2.5,5,5,0,0,1-.84,2.37c-.56.95-1.62,2.57-3.16,4.85s-3.09,4.66-4.63,7.11-3.1,5.2-4.69,8.28c.07-.08.79-.78,2.16-2.11s2.82-2.73,4.34-4.19,2.78-2.62,3.77-3.5,2.21-1.9,3.69-3.07v2.35q-4.75,5.1-8.6,9.67c-2.56,3.05-4.55,5.49-5.94,7.31l-2.44,3.2c-.64.82-1.2,1.59-1.71,2.31s-.92,1.26-1.26,1.65-.62.58-.83.58c-.49,0-.93-.49-1.32-1.46a7.24,7.24,0,0,1-.58-2.58,3.94,3.94,0,0,1,.39-1.8Q115,54.83,123.78,40.72Z" transform="translate(-4.57 -3.91)"/><path class="cls-1" d="M150.64,39.42q-3.09,3.51-5.53,6a48.74,48.74,0,0,1-4,3.67A4.74,4.74,0,0,1,139,50.28c-.61,0-1.29-.49-2-1.47A13.31,13.31,0,0,1,135,45a13.77,13.77,0,0,1-.8-4.64q0-3.4,3.3-6.87a30.35,30.35,0,0,1,7.52-5.75q4.23-2.28,6.33-2.28c1.15,0,2.27.72,3.38,2.18q2.7-5.67,5.15-10.06A56.08,56.08,0,0,1,164,11.08c1.1-1.43,1.89-2.14,2.36-2.14a1.87,1.87,0,0,1,1.42.75,2.54,2.54,0,0,1,.65,1.71q0,1.83-2.67,6.27t-5.27,8.67A73.78,73.78,0,0,0,156,34.65a18.51,18.51,0,0,0-1.86,7.58c0,2.11.68,3.17,2,3.17A5.71,5.71,0,0,0,159.29,44a67.22,67.22,0,0,0,5.31-4.66v2.56q-7.59,9.81-11.71,9.81a2.52,2.52,0,0,1-2.37-1.26,7.8,7.8,0,0,1-.72-3.76A34.72,34.72,0,0,1,150.64,39.42Zm2.61-8.58a45.24,45.24,0,0,0-7.35,3.39,29.46,29.46,0,0,0-5.1,3.22,6,6,0,0,0-1.37,2.64,10.9,10.9,0,0,0-.6,2.91,1.44,1.44,0,0,0,.35,1,1.15,1.15,0,0,0,.88.39,2.17,2.17,0,0,0,1.13-.43,22.68,22.68,0,0,0,2-1.65c.92-.82,1.53-1.35,1.81-1.58s1.28-1.11,2.65-2.27,2.38-2.07,3-2.72a10.68,10.68,0,0,0,1.62-2.2A9.33,9.33,0,0,0,153.25,30.84Z" transform="translate(-4.57 -3.91)"/><path class="cls-1" d="M168.71,33.06a42.73,42.73,0,0,1,10.37-7.21q5-2.36,7.77-2.36a2,2,0,0,1,1.38.62,4.74,4.74,0,0,1,1,1.42,3.46,3.46,0,0,1,.37,1.2,1,1,0,0,1-.5.93,9.36,9.36,0,0,1-1.72.72c.16.37.38.85.63,1.44s.46,1.06.6,1.42a2.79,2.79,0,0,1,.21,1c0,.56-.57,1.61-1.7,3.15s-1.94,2.66-2.39,3.39a4.91,4.91,0,0,0-.69,2.67c0,1.74.8,2.6,2.39,2.6s4.21-1.53,7.7-4.6v2.14q-8.9,9.88-12.72,9.88a2.17,2.17,0,0,1-2-.89,5,5,0,0,1-.58-2.66,25,25,0,0,1,2-8q-5.13,5.7-7.63,8.1t-4.11,2.41c-.52,0-1.16-.44-1.94-1.33a12.77,12.77,0,0,1-2-3.47,11.19,11.19,0,0,1-.9-4.41,9.87,9.87,0,0,1,.32-2.76,6.71,6.71,0,0,1,1.23-2.27A31.72,31.72,0,0,1,168.71,33.06Zm16.84-3.87q-9.13,4.18-13,7.1c-2.59,1.94-3.89,4-3.89,6a3.87,3.87,0,0,0,.39,1.85,1.17,1.17,0,0,0,1.05.72,4,4,0,0,0,1.38-.49,27.88,27.88,0,0,0,6.75-5.68Q181.27,35.21,185.55,29.19Z" transform="translate(-4.57 -3.91)"/><path class="cls-1" d="M240.75,47.19,227.5,40.72q-5.07,6.93-5.67,9.14A4.72,4.72,0,0,1,220,52.51a4.52,4.52,0,0,1-2.09,1.08c-1.19,0-1.79-.46-1.79-1.37q0-.78,2.13-4.45a91.61,91.61,0,0,1,5.85-8.67c-1.38-.56-2.24-.94-2.57-1.12s-.45-.55-.38-1.08a7.12,7.12,0,0,1,1.23-2.47,15.13,15.13,0,0,1,1.47-2,3.79,3.79,0,0,1,1.16-.81,5.29,5.29,0,0,1,1.41-.4l4.15-.53q2.78-3.76,6-8.12c2.16-2.91,3.86-5.17,5.08-6.79q-5.52.75-7.7,1.23l-3.89.76a15.19,15.19,0,0,0-2.19.53c-.43.15-.64.37-.64.65s.26.43.78.52a10.43,10.43,0,0,0,1.95.15,14.68,14.68,0,0,1,1.83.08c.43.06.65.2.65.41s-.29.37-.86.4-2.19.11-4.84.23c-1.5.05-2.76.09-3.78.14s-1.73.07-2.12.07a1.64,1.64,0,0,1-1.27-.49,1.86,1.86,0,0,1-.46-1.3,7.52,7.52,0,0,1,.67-2.22,15.93,15.93,0,0,1,1.9-3.27,9.4,9.4,0,0,1,2.81-2.56A24.63,24.63,0,0,1,230,8.92a61.22,61.22,0,0,1,8.41-1.79,61.88,61.88,0,0,1,9.15-.69,45,45,0,0,1,5.37.32c1.74.21,3.32.47,4.74.77a25.16,25.16,0,0,1,3.36.92,10,10,0,0,1,4.9,3.2,7.37,7.37,0,0,1,1.71,4.71,14.32,14.32,0,0,1-.86,4.87,13.94,13.94,0,0,1-2.64,4.39,14.18,14.18,0,0,1-4.27,3.29,32.37,32.37,0,0,1-6.19,2.14,89.32,89.32,0,0,1-10,1.93q-5.87.85-13.11,1.24Q236,36.11,240.7,38c3.13,1.28,5.76,2.41,7.91,3.41s3.82,1.81,5,2.44A26.09,26.09,0,0,1,257,45.82a2.74,2.74,0,0,1,1,1.54,14.19,14.19,0,0,1,.25,3.13,16,16,0,0,1-.3,3.64c-.2.79-.63,1.18-1.29,1.18a6.13,6.13,0,0,1-1.67-.69c-.9-.45-2.15-1.12-3.74-2s-3-1.67-4.34-2.36S243.56,48.55,240.75,47.19Zm3.09-31.75c0,.17,0,.32.06.46s0,.34,0,.6a5.33,5.33,0,0,1-.61,2.26,17.85,17.85,0,0,1-1.58,2.64q-1,1.35-2.89,3.87l-3.53,4.62q7.38-1.41,12.6-2.71a70.74,70.74,0,0,0,8.6-2.62,17.88,17.88,0,0,0,5.08-2.77,4.08,4.08,0,0,0,1.7-3q0-1.77-3.56-2.76A32.7,32.7,0,0,0,251,15c-.7,0-1.45,0-2.23.06s-1.73.1-2.82.21Z" transform="translate(-4.57 -3.91)"/><path class="cls-1" d="M265.36,33.06a42.54,42.54,0,0,1,10.37-7.21q5-2.36,7.77-2.36a1.94,1.94,0,0,1,1.37.62,4.57,4.57,0,0,1,1,1.42,3.25,3.25,0,0,1,.37,1.2,1,1,0,0,1-.49.93,9.69,9.69,0,0,1-1.72.72l.63,1.44c.26.59.46,1.06.6,1.42a2.79,2.79,0,0,1,.21,1q0,.84-1.71,3.15c-1.13,1.53-1.93,2.66-2.39,3.39a5,5,0,0,0-.68,2.67c0,1.74.79,2.6,2.39,2.6s4.2-1.53,7.7-4.6v2.14q-8.89,9.88-12.73,9.88a2.16,2.16,0,0,1-1.95-.89,4.93,4.93,0,0,1-.58-2.66,25.21,25.21,0,0,1,2-8q-5.13,5.7-7.63,8.1t-4.11,2.41c-.52,0-1.16-.44-1.93-1.33a12.78,12.78,0,0,1-2.06-3.47,11.19,11.19,0,0,1-.9-4.41,10.25,10.25,0,0,1,.32-2.76,6.71,6.71,0,0,1,1.23-2.27A30.84,30.84,0,0,1,265.36,33.06Zm16.84-3.87q-9.15,4.18-13,7.1c-2.59,1.94-3.88,4-3.88,6a4,4,0,0,0,.38,1.85,1.18,1.18,0,0,0,1.06.72,4,4,0,0,0,1.37-.49,27.88,27.88,0,0,0,6.75-5.68Q277.91,35.21,282.2,29.19Z" transform="translate(-4.57 -3.91)"/><path class="cls-1" d="M290.32,40.33v-.84q9.07-9.57,12.48-13.4.78-4.32,3.73-4.32a3.56,3.56,0,0,1,1.58.42l.21.67a4.09,4.09,0,0,0-.14,1.2,11.17,11.17,0,0,0,.51,2.47c.34,1.21.6,2.22.79,3a12.46,12.46,0,0,1,.28,2.78,9.93,9.93,0,0,1-1.05,4.45,15.35,15.35,0,0,1-3.06,4.08,33.51,33.51,0,0,1-5.17,4,12.91,12.91,0,0,0,2,.21,7.88,7.88,0,0,0,3.11-.72A19.23,19.23,0,0,0,309,42.42c1.17-.8,2.52-1.85,4.07-3.14v2.35A52.9,52.9,0,0,1,305,48.3a11.91,11.91,0,0,1-6.11,2.26,8.51,8.51,0,0,1-6.12-2.81,7.56,7.56,0,0,1-2.06-3.23A17.31,17.31,0,0,1,290.32,40.33ZM303.43,35l-.63-5.13q-2.18,2.46-9.32,9.46a5.9,5.9,0,0,1,2.89,1.23,19.52,19.52,0,0,1,2.18,3,8.64,8.64,0,0,0,3.67-2.69,7.56,7.56,0,0,0,1.28-4.66c0-.24,0-.45,0-.63S303.46,35.14,303.43,35Z" transform="translate(-4.57 -3.91)"/><path class="cls-1" d="M339.22,39.35v2.21c-2,2.09-3.8,3.79-5.29,5.12a29,29,0,0,1-3.9,3,5.75,5.75,0,0,1-2.83,1c-1.83,0-2.74-1.07-2.74-3.23a13.84,13.84,0,0,1,1.7-6,68.1,68.1,0,0,1,4.91-8.07,21,21,0,0,0-5.49,4.41l-1.83,2.13c-1.52,1.71-3,3.46-4.39,5.26s-2.36,3-2.85,3.49a2,2,0,0,1-1.41.81c-1.82,0-2.74-2.25-2.74-6.75a20,20,0,0,1,.67-4.88,25.15,25.15,0,0,1,3.59-7.07q6.15-9.21,10.53-15.06a94.91,94.91,0,0,1,7.26-8.86q2.88-3,3.86-2.94a5.62,5.62,0,0,1,2,.49c.5.26.75.55.75.88a6.91,6.91,0,0,1-1.21,2.9q-1.21,2-4.16,6.31c-2.14,3-3.65,5.15-4.54,6.38s-2.22,3-4,5.24-3.39,4.28-4.85,6-3.14,3.68-5,5.75v4.22q4.71-5.25,8.16-8.58a53.52,53.52,0,0,1,5.83-5c1.59-1.13,2.77-1.7,3.52-1.7a2.51,2.51,0,0,1,2,1.25,3.87,3.87,0,0,1,.91,2.05,1.72,1.72,0,0,1-.35.88q-2.54,3-4,5a26.31,26.31,0,0,0-2.3,3.55,6.07,6.07,0,0,0-.81,2.69c0,1.1.53,1.65,1.58,1.65S335.35,42.37,339.22,39.35Z" transform="translate(-4.57 -3.91)"/><path class="cls-1" d="M344.85,40.61v.88a4.75,4.75,0,0,0,1,3.24,3.4,3.4,0,0,0,2.67,1.16,8.86,8.86,0,0,0,3.57-.81,19.68,19.68,0,0,0,3.67-2.15q1.83-1.34,4.47-3.58v2.14a43.64,43.64,0,0,1-7.46,7.33,11.85,11.85,0,0,1-7.06,2.55,5.89,5.89,0,0,1-5-2.42,10.83,10.83,0,0,1-1.83-6.65,13.24,13.24,0,0,1,1.72-6.7,25.47,25.47,0,0,1,5.63-6.34,21.69,21.69,0,0,1,5.31-3.45,11.9,11.9,0,0,1,4.71-1.16,4.12,4.12,0,0,1,2.62.76,2.71,2.71,0,0,1,1,2.27,7.34,7.34,0,0,1-1.65,4.41,19.09,19.09,0,0,1-5,4.36A51.86,51.86,0,0,1,344.85,40.61Zm.35-2.28a20,20,0,0,0,5.41-3.06,15.34,15.34,0,0,0,3.32-3.5A5.48,5.48,0,0,0,355,29.33c0-.54-.25-.81-.74-.81a5.07,5.07,0,0,0-2.06.81,16.72,16.72,0,0,0-2.88,2.11,15.36,15.36,0,0,0-2.62,3.06A9.86,9.86,0,0,0,345.2,38.33Z" transform="translate(-4.57 -3.91)"/><path class="cls-1" d="M376.31,39.42q-3.09,3.51-5.54,6a47.29,47.29,0,0,1-4,3.67,4.8,4.8,0,0,1-2.09,1.21c-.61,0-1.29-.49-2.06-1.47A13.56,13.56,0,0,1,360.7,45a13.78,13.78,0,0,1-.81-4.64c0-2.27,1.11-4.56,3.31-6.87a30.35,30.35,0,0,1,7.52-5.75q4.21-2.28,6.33-2.28c1.15,0,2.27.72,3.37,2.18q2.71-5.67,5.16-10.06a54.76,54.76,0,0,1,4.09-6.54c1.1-1.43,1.89-2.14,2.36-2.14a1.87,1.87,0,0,1,1.42.75,2.59,2.59,0,0,1,.65,1.71q0,1.83-2.67,6.27t-5.27,8.67a73.78,73.78,0,0,0-4.47,8.31,18.51,18.51,0,0,0-1.86,7.58c0,2.11.68,3.17,2,3.17A5.71,5.71,0,0,0,385,44a67.22,67.22,0,0,0,5.31-4.66v2.56q-7.59,9.81-11.71,9.81a2.52,2.52,0,0,1-2.37-1.26,7.8,7.8,0,0,1-.72-3.76A34.72,34.72,0,0,1,376.31,39.42Zm2.6-8.58a45.58,45.58,0,0,0-7.34,3.39,29.46,29.46,0,0,0-5.1,3.22,6,6,0,0,0-1.37,2.64,10.9,10.9,0,0,0-.6,2.91,1.44,1.44,0,0,0,.35,1,1.13,1.13,0,0,0,.88.39,2.11,2.11,0,0,0,1.12-.43,21.06,21.06,0,0,0,2-1.65c.92-.82,1.53-1.35,1.81-1.58s1.28-1.11,2.65-2.27,2.37-2.07,3-2.72a10.29,10.29,0,0,0,1.61-2.2A8.77,8.77,0,0,0,378.91,30.84Z" transform="translate(-4.57 -3.91)"/><path class="cls-1" d="M406.48,40.72,400.22,46q-4.47,3.9-6,3.9t-2.88-3.15a13,13,0,0,1-1.51-5.5,8.35,8.35,0,0,1,.61-3.39,23.75,23.75,0,0,1,2.13-3.6,48.67,48.67,0,0,1,4.11-5.07A29.35,29.35,0,0,1,400.18,26a4.7,4.7,0,0,1,2.11-1.15,2.55,2.55,0,0,1,1.85,1,3,3,0,0,1,.89,2,4.83,4.83,0,0,1-1,2.14A32.21,32.21,0,0,1,401,33.78a70,70,0,0,1-5.82,5.43l-.67,1.93a2.24,2.24,0,0,0-.28,1,.84.84,0,0,0,.95.94q1,0,4.62-2.49a58.52,58.52,0,0,0,7.9-6.72c1.1-1.1,2-2.07,2.74-2.91s1.38-1.64,2-2.38a17.17,17.17,0,0,1,1.46-1.67,1.79,1.79,0,0,1,1-.59,1.29,1.29,0,0,1,1.37.73,5.06,5.06,0,0,1,.5,2.5,4.91,4.91,0,0,1-.85,2.37q-.84,1.43-3.16,4.85t-4.62,7.11q-2.31,3.66-4.7,8.28c.07-.08.79-.78,2.16-2.11s2.82-2.73,4.35-4.19,2.77-2.62,3.76-3.5,2.21-1.9,3.69-3.07v2.35q-4.74,5.1-8.6,9.67t-5.94,7.31l-2.44,3.2q-.94,1.23-1.71,2.31t-1.26,1.65c-.34.38-.62.58-.83.58-.49,0-.93-.49-1.32-1.46a7.24,7.24,0,0,1-.58-2.58,3.94,3.94,0,0,1,.39-1.8Q397.66,54.83,406.48,40.72Z" transform="translate(-4.57 -3.91)"/></svg>
